<svg xmlns="http://www.w3.org/2000/svg" xmlns:xlink="http://www.w3.org/1999/xlink" width="1024" height="346" viewBox="0 0 1024 346">
  <defs>
    <clipPath id="clip-path">
      <rect id="Rectangle_73" data-name="Rectangle 73" width="1004" height="330" transform="translate(0 0)" fill="none"/>
    </clipPath>
    <clipPath id="clip-header_logo_white_">
      <rect width="1024" height="346"/>
    </clipPath>
  </defs>
  <g id="header_logo_white_" data-name="header logo white " clip-path="url(#clip-header_logo_white_)">
    <g id="Group_10" data-name="Group 10" transform="translate(10.081 8.661)">
      <g id="Group_11" data-name="Group 11" transform="translate(-0.081 -0.661)" clip-path="url(#clip-path)">
        <path id="Path_42" data-name="Path 42" d="M300.932,290.67A10.373,10.373,0,0,1,290.7,300.907H32.329A10.373,10.373,0,0,1,22.093,290.67V32.3A10.368,10.368,0,0,1,32.329,22.071H290.7A10.368,10.368,0,0,1,300.932,32.3ZM290.7-.025H32.329A32.363,32.363,0,0,0,0,32.3V290.67A32.365,32.365,0,0,0,32.329,323H290.7a32.367,32.367,0,0,0,32.329-32.329V32.3A32.364,32.364,0,0,0,290.7-.025" transform="translate(-1.276 2.708)" fill="#54c7dd"/>
        <path id="Path_43" data-name="Path 43" d="M125.368,39.259H35.2a13.467,13.467,0,0,0,0,26.934h90.167a13.467,13.467,0,0,0,0-26.934" transform="translate(34.808 67.927)" fill="#fff"/>
        <path id="Path_44" data-name="Path 44" d="M142.476,56.218H52.136a13.467,13.467,0,0,0,0,26.934h90.34a13.467,13.467,0,0,0,0-26.934" transform="translate(62.929 96.082)" fill="#fff"/>
        <path id="Path_45" data-name="Path 45" d="M159.377,100.065a13.467,13.467,0,0,0,0-26.934H69.1a13.467,13.467,0,0,0,0,26.934Z" transform="translate(91.081 124.161)" fill="#fff"/>
        <path id="Path_46" data-name="Path 46" d="M103.034,56.218A13.467,13.467,0,1,0,116.5,69.684a13.482,13.482,0,0,0-13.466-13.466" transform="translate(147.424 96.082)" fill="#54c7dd"/>
        <path id="Path_47" data-name="Path 47" d="M131.149,39.215H86.094a13.467,13.467,0,0,0,0,26.934h45.056a13.467,13.467,0,0,0,0-26.934" transform="translate(119.309 67.854)" fill="#54c7dd"/>
        <path id="Path_48" data-name="Path 48" d="M35.152,83.151A13.467,13.467,0,1,0,21.686,69.686,13.484,13.484,0,0,0,35.152,83.151" transform="translate(34.727 96.08)" fill="#54c7dd"/>
        <path id="Path_49" data-name="Path 49" d="M35.147,100.065H80.463a13.467,13.467,0,1,0,0-26.934H35.147a13.467,13.467,0,0,0,0,26.934" transform="translate(34.719 124.161)" fill="#54c7dd"/>
        <path id="Path_50" data-name="Path 50" d="M103.034,90.111A13.467,13.467,0,1,0,116.5,103.577a13.482,13.482,0,0,0-13.466-13.466" transform="translate(147.424 152.351)" fill="#54c7dd"/>
        <path id="Path_51" data-name="Path 51" d="M35.147,22.279A13.467,13.467,0,1,0,48.613,35.745,13.48,13.48,0,0,0,35.147,22.279" transform="translate(34.719 39.737)" fill="#54c7dd"/>
        <path id="Path_52" data-name="Path 52" d="M187.529,22.279H52.139a13.467,13.467,0,0,0,0,26.934h135.39a13.467,13.467,0,0,0,0-26.934" transform="translate(62.929 39.737)" fill="#fff"/>
        <path id="Path_53" data-name="Path 53" d="M35.2,117.053H170.6a13.467,13.467,0,0,0,0-26.934H35.2a13.467,13.467,0,0,0,0,26.934" transform="translate(34.812 152.364)" fill="#fff"/>
        <path id="Path_54" data-name="Path 54" d="M198.575,174.859c18.26,0,30.645-7.744,30.645-21.667,0-10.524-8.05-16.094-22.907-20.731l-22.593-7.127c-24.447-7.733-39.3-19.185-39.3-41.467,0-25.687,22.282-41.472,54.156-41.472,18.882,0,31.26,5.568,38.07,9.593,4.331,2.474,7.116,5.257,7.116,9.289,0,5.259-5.259,12.064-10.213,12.064-2.78,0-4.328-.923-6.5-1.857-4.647-2.785-16.716-7.422-28.477-7.422-18.26,0-30.643,6.807-30.643,18.871,0,10.832,8.667,16.1,22.907,20.739l22.285,7.113c25.686,8.052,39.615,19.808,39.615,42.406,0,26.615-22.287,43.332-54.164,43.332-24.761,0-40.544-8.67-51.068-18.882-2.168-2.474-4.637-4.645-4.637-8.353,0-5.568,5.257-11.763,11.755-11.763,2.168,0,3.716.311,7.741,3.714,7.733,6.807,16.4,13.62,36.208,13.62" transform="translate(235.917 73.133)" fill="#fff"/>
        <path id="Path_55" data-name="Path 55" d="M217.6,90.024c0,1.551.622,2.171,1.86,2.171.614,0,1.851-1.24,2.474-1.548,11.452-9.6,24.453-12.689,38.067-12.689,41.47,0,53.853,26.615,53.853,64.065V220.6c0,7.422-5.57,10.207-11.141,10.207-5.882,0-11.763-2.785-11.763-10.207V151.93c0-30.028-1.237-52.31-36.83-52.31-25.993,0-36.519,13.929-36.519,41.161V220.6c0,7.422-5.882,10.207-11.452,10.207-5.882,0-11.452-2.785-11.452-10.207V31.952c0-7.43,5.57-10.212,11.452-10.212,5.57,0,11.452,2.783,11.452,10.212Z" transform="translate(321.954 38.842)" fill="#fff"/>
        <path id="Path_56" data-name="Path 56" d="M343.8,129.8a2.463,2.463,0,0,0-2.788-2.785H313.164c-21.045,0-39.927,3.1-39.927,23.215,0,15.78,10.215,23.966,27.552,23.966,30.635,0,43.015-18.089,43.015-36.655Zm1.857,47.974c-.926,0-1.857,1.24-3.1,2.171-10.215,8.356-23.519,15.778-45.8,15.778-35.9,0-47.043-22.282-47.043-42.087,0-37.764,31.26-47.048,61.283-47.048h30.012c2.171,0,2.788-.923,2.788-2.785v-7.7c0-21.359-10.518-31.571-34.042-31.571-18.879,0-26.621,4.639-36.211,11.763a6.8,6.8,0,0,1-4.333,1.546c-5.882,0-11.455-6.5-11.455-12.072,0-3.4,1.859-6.19,4.956-8.976,13.929-11.141,31.566-13.923,47.66-13.923,47.974,0,57.564,23.484,57.564,60.315v62.823c0,5.57,1.548,8.358,6.81,8.358h2.786c5.264,0,8.052,4.333,8.052,10.215,0,8.042-3.407,11.138-16.1,11.138-11.763,0-18.874-5.257-22.281-16.089-.62-1.551-.926-1.859-1.549-1.859" transform="translate(413.309 73.928)" fill="#54c7dd"/>
        <path id="Path_57" data-name="Path 57" d="M332.045,186.31c0,7.427-5.884,10.213-11.455,10.213-5.881,0-11.449-2.785-11.449-10.213V52.609c0-7.43,5.568-10.215,11.449-10.215,5.571,0,11.455,2.785,11.455,10.215Z" transform="translate(511.958 73.131)" fill="#54c7dd"/>
        <path id="Path_58" data-name="Path 58" d="M430,119.453c0-32.492-2.785-55.4-38.065-55.4-34.356,0-36.522,25.07-36.522,55.4,0,27.552.62,55.406,36.522,55.406,35.279,0,38.065-22.9,38.065-55.406m23.524,0c0,43.954-11.141,77.066-57.569,77.066-11.758,0-24.758-2.785-36.211-12.692a3.839,3.839,0,0,0-2.474-1.546c-1.237,0-1.857.934-1.857,2.168v59.562c0,7.43-5.881,10.215-11.452,10.215-5.882,0-11.449-2.785-11.449-10.215V52.607c0-7.43,5.568-10.212,11.449-10.212s11.452,2.783,11.452,10.212V54.77a1.642,1.642,0,0,0,1.857,1.859,6.28,6.28,0,0,0,2.785-1.548c11.758-9.9,24.141-12.686,35.9-12.686,46.428,0,57.569,33.111,57.569,77.058" transform="translate(550.755 73.133)" fill="#fff"/>
        <path id="Path_59" data-name="Path 59" d="M308.384,35.742a13.466,13.466,0,1,1,13.463,13.463,13.462,13.462,0,0,1-13.463-13.463" transform="translate(510.701 39.737)" fill="#54c7dd"/>
      </g>
    </g>
  </g>
</svg>
